<?xml version="1.0" encoding="UTF-8" standalone="no"?>
<!-- Created with Inkscape (http://www.inkscape.org/) -->

<svg
   xmlns:dc="http://purl.org/dc/elements/1.1/"
   xmlns:cc="http://creativecommons.org/ns#"
   xmlns:rdf="http://www.w3.org/1999/02/22-rdf-syntax-ns#"
   xmlns:svg="http://www.w3.org/2000/svg"
   xmlns="http://www.w3.org/2000/svg"
   xmlns:sodipodi="http://sodipodi.sourceforge.net/DTD/sodipodi-0.dtd"
   xmlns:inkscape="http://www.inkscape.org/namespaces/inkscape"
   width="744.09448819"
   height="1052.3622047"
   id="svg2"
   version="1.1"
   inkscape:version="0.48.5 r10040"
   sodipodi:docname="drawing1.svg">
  <defs
     id="defs4" />
  <sodipodi:namedview
     id="base"
     pagecolor="#ffffff"
     bordercolor="#666666"
     borderopacity="1.0"
     inkscape:pageopacity="0.0"
     inkscape:pageshadow="2"
     inkscape:zoom="0.69611264"
     inkscape:cx="509.2906"
     inkscape:cy="897.41372"
     inkscape:document-units="px"
     inkscape:current-layer="layer1"
     showgrid="false"
     inkscape:window-width="1366"
     inkscape:window-height="705"
     inkscape:window-x="-8"
     inkscape:window-y="-8"
     inkscape:window-maximized="1" />
  <metadata
     id="metadata7">
    <rdf:RDF>
      <cc:Work
         rdf:about="">
        <dc:format>image/svg+xml</dc:format>
        <dc:type
           rdf:resource="http://purl.org/dc/dcmitype/StillImage" />
        <dc:title />
      </cc:Work>
    </rdf:RDF>
  </metadata>
  <g
     inkscape:label="Layer 1"
     inkscape:groupmode="layer"
     id="layer1">
    <path
       style="fill:none;stroke:#000000;stroke-width:0.50955671000000002;stroke-miterlimit:4;stroke-opacity:1"
       d="M -93.869904,-105.639 1006.4015,-105.639 C 1008.2656,-105.639 1009.7663,-104.11051 1009.7663,-102.21186 L 1009.7663,290.42426 C 1009.7663,292.3229 1008.2656,293.85144 1006.4015,293.85144 L -93.869904,293.85144 C -95.733963,293.85144 -97.234633,292.3229 -97.234633,290.42426 L -97.234633,-102.21186 C -97.234633,-104.11051 -95.733963,-105.639 -93.869904,-105.639 z"
       id="rect2985"
       inkscape:connector-curvature="0" />
    <path
       inkscape:connector-curvature="0"
       id="path3765"
       style="font-size:50px;font-style:normal;font-variant:normal;font-weight:normal;font-stretch:normal;line-height:125%;letter-spacing:0px;word-spacing:0px;fill:none;fill-opacity:1;stroke:#000000;stroke-width:4.81105900000000020;stroke-opacity:1;font-family:Bauhaus 93;-inkscape-font-specification:'Bauhaus 93,'"
       d="M -5.1642603,-73.297482 42.523477,-73.297482 42.523477,21.960556 C 42.523403,29.399574 43.717552,34.352364 46.105926,36.818916 48.494163,39.285565 53.212037,40.518871 60.25954,40.518822 L 62.726165,40.518822 62.726165,87.031987 50.040749,87.031987 C 32.656978,87.031987 19.110237,81.961727 9.4004629,71.821244 -0.30937301,61.680773 -5.1642847,47.605457 -5.1642603,29.595283 z" />
    <path
       inkscape:connector-curvature="0"
       id="path3767"
       style="font-size:50px;font-style:normal;font-variant:normal;font-weight:normal;font-stretch:normal;line-height:125%;letter-spacing:0px;word-spacing:0px;fill:none;fill-opacity:1;stroke:#000000;stroke-width:4.81105900000000020;stroke-opacity:1;font-family:Bauhaus 93;-inkscape-font-specification:'Bauhaus 93,'"
       d="M 140.71793,43.102879 140.71793,88.55893 C 137.11585,89.185373 133.82702,89.4986 130.85151,89.4986 113.23284,89.4986 98.550657,83.704018 86.804959,72.114881 75.059164,60.525767 69.186323,46.000225 69.186323,28.538156 69.186323,11.546063 75.117904,-2.8620431 86.981134,-14.686196 98.844319,-26.510113 113.272,-32.422149 130.26423,-32.422275 149.21396,-32.422149 164.15062,-26.882075 175.07426,-15.802044 185.99769,-4.7217845 191.45944,10.410624 191.45959,29.595283 L 191.45959,87.031987 147.53048,87.031987 147.53048,32.766638 C 147.5304,26.58059 146.02304,21.647403 143.00835,17.966988 139.99354,14.286709 135.94126,12.446563 130.85151,12.44649 126.23146,12.446563 122.23791,14.130121 118.87084,17.497159 115.50369,20.864346 113.82014,24.857889 113.82018,29.477825 113.82014,34.332786 115.34708,38.326342 118.40103,41.458491 121.45486,44.59074 125.33095,46.156839 130.0293,46.156789 133.86619,46.156839 137.42908,45.138856 140.71793,43.102879 z" />
    <path
       inkscape:connector-curvature="0"
       id="path3769"
       style="font-size:50px;font-style:normal;font-variant:normal;font-weight:normal;font-stretch:normal;line-height:125%;letter-spacing:0px;word-spacing:0px;fill:none;fill-opacity:1;stroke:#000000;stroke-width:4.81105900000000020;stroke-opacity:1;font-family:Bauhaus 93;-inkscape-font-specification:'Bauhaus 93,'"
       d="M 290.47623,-28.428705 290.47623,17.849531 C 284.29007,17.849605 280.04207,19.00461 277.73213,21.314523 275.42205,23.624595 273.95386,28.185846 273.32747,34.998312 271.29147,57.62847 262.52133,73.602679 247.01696,82.920963 238.79491,87.775887 227.12749,90.203331 212.01465,90.203331 L 205.90685,90.203331 205.90685,43.690189 207.90364,43.690189 C 214.95106,43.690239 219.98219,42.221993 222.99693,39.285515 226.01164,36.349148 227.75391,31.200588 228.22376,23.839857 228.85022,11.859266 229.96605,3.4414956 231.5713,-1.4135017 233.17656,-6.2683189 236.44577,-11.084075 241.37903,-15.860769 249.99251,-24.239283 261.93406,-28.428587 277.20358,-28.428705 z" />
    <path
       inkscape:connector-curvature="0"
       id="path3771"
       style="font-size:50px;font-style:normal;font-variant:normal;font-weight:normal;font-stretch:normal;line-height:125%;letter-spacing:0px;word-spacing:0px;fill:none;fill-opacity:1;stroke:#000000;stroke-width:4.81105900000000020;stroke-opacity:1;font-family:Bauhaus 93;-inkscape-font-specification:'Bauhaus 93,'"
       d="M 420.03191,35.58561 353.43348,35.58561 C 352.41544,32.218546 351.90649,29.125503 351.90654,26.30647 351.90649,22.39129 352.61122,18.55436 354.02076,14.795645 L 376.33766,14.795645 C 374.77154,6.1038778 369.87748,1.7579408 361.65553,1.7578669 356.17408,1.7579408 351.71071,4.0875158 348.26533,8.7465588 344.8199,13.405799 343.09715,19.376536 343.09718,26.658854 343.09715,34.254473 344.76115,40.401414 348.08915,45.099675 351.41705,49.797998 355.78255,52.147141 361.18566,52.147092 365.57066,52.147141 369.79916,49.954612 373.87107,45.569492 L 398.88949,75.638607 C 387.22197,84.800302 374.26251,89.381142 360.01111,89.381142 342.62734,89.381142 328.02348,83.547429 316.19943,71.879966 304.37538,60.212553 298.46337,45.765311 298.46337,28.538156 298.46337,11.389449 304.43413,-3.0969576 316.37566,-14.921096 328.3171,-26.745028 342.97971,-32.657064 360.36346,-32.65719 377.3556,-32.657064 391.62663,-26.882075 403.17673,-15.332193 414.72659,-3.7821411 420.5016,10.44978 420.50169,27.363585 420.5016,29.086347 420.34496,31.82703 420.03191,35.58561 z" />
    <path
       inkscape:connector-curvature="0"
       id="path3773"
       style="font-size:50px;font-style:normal;font-variant:normal;font-weight:normal;font-stretch:normal;line-height:125%;letter-spacing:0px;word-spacing:0px;fill:none;fill-opacity:1;stroke:#000000;stroke-width:4.81105900000000020;stroke-opacity:1;font-family:Bauhaus 93;-inkscape-font-specification:'Bauhaus 93,'"
       d="M 502.60449,-31.24768 502.60449,15.73529 C 499.55052,14.012663 496.7707,13.151295 494.26498,13.151221 486.27782,13.151295 482.2843,19.259091 482.28435,31.474584 L 482.28435,87.031987 438.35524,87.031987 438.35524,23.017645 C 438.35524,6.1038778 442.97522,-7.3841667 452.21524,-17.446431 461.45517,-27.508504 473.78822,-32.539607 489.21435,-32.539732 492.6597,-32.539607 497.12305,-32.108928 502.60449,-31.24768 z" />
    <path
       inkscape:connector-curvature="0"
       id="path3775"
       style="font-size:50px;font-style:normal;font-variant:normal;font-weight:normal;font-stretch:normal;line-height:125%;letter-spacing:0px;word-spacing:0px;fill:none;fill-opacity:1;stroke:#000000;stroke-width:4.81105900000000020;stroke-opacity:1;font-family:Bauhaus 93;-inkscape-font-specification:'Bauhaus 93,'"
       d="M 578.83441,-73.297482 637.09331,-73.297482 C 671.62574,-73.297305 688.89195,-59.71141 688.89205,-32.539732 688.89195,-19.07117 682.97994,-7.8735708 671.15598,1.0531085 688.30468,8.4921652 696.87904,21.764847 696.87919,40.871193 696.87904,55.514254 691.82838,67.181693 681.72719,75.873509 676.79383,80.023703 671.50826,82.920963 665.87041,84.565387 660.23232,86.209788 652.63678,87.031987 643.08366,87.031987 L 634.03945,87.031987 634.03945,45.804431 642.144,45.804431 C 646.92052,45.804455 650.28763,45.197579 652.24536,43.983826 654.20287,42.770135 655.18168,40.636328 655.18178,37.582393 655.18168,32.414303 651.18811,29.830234 643.2011,29.830185 L 634.03945,29.830185 634.03945,-12.924315 C 642.80952,-12.924219 647.19462,-15.938958 647.19467,-21.968555 647.19462,-27.528086 643.24021,-30.307911 635.33145,-30.308037 L 626.52216,-30.308037 626.52216,87.031987 578.83441,87.031987 z" />
    <path
       inkscape:connector-curvature="0"
       id="path3777"
       style="font-size:50px;font-style:normal;font-variant:normal;font-weight:normal;font-stretch:normal;line-height:125%;letter-spacing:0px;word-spacing:0px;fill:none;fill-opacity:1;stroke:#000000;stroke-width:4.81105900000000020;stroke-opacity:1;font-family:Bauhaus 93;-inkscape-font-specification:'Bauhaus 93,'"
       d="M 768.29332,-32.539732 C 784.89388,-32.539607 799.1258,-26.568846 810.98915,-14.627464 822.85221,-2.6858682 828.78385,11.624364 828.78392,28.303254 828.78385,45.217169 822.77394,59.625254 810.75419,71.527607 798.7343,83.429948 784.22836,89.381142 767.23622,89.381142 750.24401,89.381142 735.71843,83.410382 723.65955,71.468872 711.60049,59.527375 705.57104,45.138856 705.57104,28.303254 705.57104,11.154535 711.60049,-3.2731398 723.65955,-14.979836 735.71843,-26.686303 750.59638,-32.539607 768.29332,-32.539732 z M 767.11882,10.802077 C 762.42045,10.802151 758.42689,12.505299 755.13813,15.91147 751.84922,19.317813 750.20488,23.487548 750.20488,28.420699 750.20488,33.275672 751.86879,37.425829 755.19683,40.871193 758.52473,44.316668 762.49872,46.039357 767.11882,46.039333 771.81703,46.039357 775.83009,44.316668 779.15813,40.871193 782.4861,37.425829 784.15001,33.275672 784.15008,28.420699 784.15001,23.487548 782.50567,19.317813 779.21691,15.91147 775.928,12.505299 771.8953,10.802151 767.11882,10.802077 z" />
    <path
       inkscape:connector-curvature="0"
       id="path3779"
       style="font-size:50px;font-style:normal;font-variant:normal;font-weight:normal;font-stretch:normal;line-height:125%;letter-spacing:0px;word-spacing:0px;fill:none;fill-opacity:1;stroke:#000000;stroke-width:4.81105900000000020;stroke-opacity:1;font-family:Bauhaus 93;-inkscape-font-specification:'Bauhaus 93,'"
       d="M 886.22066,-73.297482 886.22066,-28.428705 905.95351,-28.428705 905.95351,17.966988 886.22066,17.966988 C 886.22059,27.285333 887.68882,33.706357 890.62536,37.230009 893.56176,40.753785 898.94514,42.515655 906.77572,42.515605 L 906.77572,88.676388 C 904.50477,88.754688 902.82129,88.793845 901.72506,88.793845 891.78029,88.793845 882.40328,86.483846 873.59402,81.863848 864.78469,77.243863 857.71761,70.97949 852.39293,63.070668 845.65873,52.969328 842.29155,39.579201 842.29155,22.900188 L 842.29155,-73.297482 z" />
    <path
       inkscape:connector-curvature="0"
       id="path3865"
       style="font-size:82.84490203999999400px;font-style:normal;font-variant:normal;font-weight:normal;font-stretch:normal;line-height:125%;letter-spacing:0px;word-spacing:0px;fill:none;fill-opacity:1;stroke:#000000;stroke-width:1.47679984999999990;stroke-miterlimit:4;stroke-opacity:1;font-family:Arial;-inkscape-font-specification:Arial"
       d="M 56.677324,224.70593 56.677324,172.402 37.139195,172.402 37.139195,165.40387 84.143968,165.40387 84.143968,172.402 64.524936,172.402 64.524936,224.70593 z" />
    <path
       inkscape:connector-curvature="0"
       id="path3867"
       style="font-size:82.84490203999999400px;font-style:normal;font-variant:normal;font-weight:normal;font-stretch:normal;line-height:125%;letter-spacing:0px;word-spacing:0px;fill:none;fill-opacity:1;stroke:#000000;stroke-width:1.47679984999999990;stroke-miterlimit:4;stroke-opacity:1;font-family:Arial;-inkscape-font-specification:Arial"
       d="M 91.303905,224.70593 91.303905,165.40387 98.585195,165.40387 98.585195,186.68142 C 101.98311,182.74417 106.27098,180.77553 111.44881,180.77548 114.63097,180.77553 117.39516,181.40252 119.74139,182.65648 122.08755,183.91052 123.76629,185.6432 124.77761,187.85451 125.78886,190.0659 126.29451,193.27506 126.29455,197.482 L 126.29455,224.70593 119.01326,224.70593 119.01326,197.482 C 119.01323,193.84138 118.22442,191.19181 116.64684,189.53326 115.0692,187.87478 112.83762,187.04552 109.9521,187.04548 107.79466,187.04552 105.76534,187.6051 103.86413,188.72422 101.96289,189.84342 100.60776,191.36035 99.798744,193.27503 98.989698,195.18977 98.585183,197.83261 98.585195,201.20355 L 98.585195,224.70593 z" />
    <path
       inkscape:connector-curvature="0"
       id="path3869"
       style="font-size:82.84490203999999400px;font-style:normal;font-variant:normal;font-weight:normal;font-stretch:normal;line-height:125%;letter-spacing:0px;word-spacing:0px;fill:none;fill-opacity:1;stroke:#000000;stroke-width:1.47679984999999990;stroke-miterlimit:4;stroke-opacity:1;font-family:Arial;-inkscape-font-specification:Arial"
       d="M 166.82706,210.87148 174.35106,211.80187 C 173.16444,216.19762 170.96657,219.60903 167.75745,222.03613 164.54825,224.46322 160.44916,225.67677 155.46016,225.67677 149.17666,225.67677 144.19437,223.74184 140.51329,219.87196 136.83219,216.0021 134.99164,210.57485 134.99164,203.59019 134.99164,196.36286 136.85241,190.75358 140.57396,186.76232 144.2955,182.77114 149.12272,180.77553 155.05564,180.77548 160.79974,180.77553 165.49212,182.73068 169.1328,186.64097 172.77341,190.55132 174.59373,196.05274 174.59377,203.14522 174.59373,203.57673 174.58024,204.22395 174.55332,205.0869 L 142.51564,205.0869 C 142.78531,209.80627 144.12021,213.41994 146.52035,215.92793 148.92046,218.43594 151.91388,219.68994 155.50061,219.68993 158.17039,219.68994 160.44916,218.98878 162.33693,217.58645 164.22464,216.18413 165.72135,213.94581 166.82706,210.87148 z M 142.92016,199.10006 166.90796,199.10006 C 166.58432,195.48641 165.66741,192.77616 164.15725,190.96929 161.838,188.16468 158.8311,186.76236 155.13655,186.76232 151.79253,186.76236 148.98114,187.88152 146.70238,190.1198 144.4236,192.35816 143.16286,195.35158 142.92016,199.10006 z M 154.93429,169.52993 150.36325,176.40671 142.03022,176.40671 150.76777,165.08026 158.53448,165.08026 167.63609,176.40671 159.38396,176.40671 z M 156.18829,150.80084 165.93713,150.80084 156.5928,162.12729 150.72732,162.12729 z" />
    <path
       inkscape:connector-curvature="0"
       id="path3871"
       style="font-size:82.84490203999999400px;font-style:normal;font-variant:normal;font-weight:normal;font-stretch:normal;line-height:125%;letter-spacing:0px;word-spacing:0px;fill:none;fill-opacity:1;stroke:#000000;stroke-width:1.47679984999999990;stroke-miterlimit:4;stroke-opacity:1;font-family:Arial;-inkscape-font-specification:Arial"
       d="M 235.19029,201.44626 235.19029,194.48858 260.31074,194.44813 260.31074,216.4538 C 256.4543,219.52813 252.47656,221.84061 248.37751,223.39126 244.27837,224.9419 240.07141,225.71722 235.75661,225.71722 229.93155,225.71722 224.63913,224.46997 219.87935,221.97545 215.11953,219.48094 211.52608,215.87401 209.099,211.15464 206.67189,206.43531 205.45835,201.16312 205.45835,195.33806 205.45835,189.567 206.66515,184.1802 209.07877,179.17764 211.49237,174.17518 214.96447,170.46037 219.49506,168.03322 224.02562,165.60619 229.24387,164.39264 235.14983,164.39258 239.43767,164.39264 243.31428,165.08706 246.77967,166.47584 250.24498,167.86473 252.96198,169.79967 254.93067,172.28064 256.89926,174.76173 258.39597,177.99785 259.4208,181.98903 L 252.34177,183.93071 C 251.45178,180.91036 250.34611,178.53721 249.02474,176.81122 247.70327,175.08534 245.81553,173.70324 243.36151,172.66493 240.90741,171.62673 238.18367,171.1076 235.19029,171.10755 231.60355,171.1076 228.50226,171.6537 225.88642,172.74584 223.27052,173.83808 221.1603,175.27411 219.55574,177.05393 217.95114,178.83385 216.70388,180.78901 215.81396,182.91942 214.30376,186.58707 213.54866,190.56481 213.54867,194.85264 213.54866,200.13834 214.45882,204.56105 216.27916,208.12077 218.09946,211.68053 220.74904,214.32336 224.2279,216.04929 227.70671,217.77523 231.40129,218.6382 235.31164,218.63819 238.70954,218.6382 242.02657,217.98423 245.26274,216.67629 248.49882,215.36836 250.95288,213.97278 252.62493,212.48955 L 252.62493,201.44626 z" />
    <path
       inkscape:connector-curvature="0"
       id="path3873"
       style="font-size:82.84490203999999400px;font-style:normal;font-variant:normal;font-weight:normal;font-stretch:normal;line-height:125%;letter-spacing:0px;word-spacing:0px;fill:none;fill-opacity:1;stroke:#000000;stroke-width:1.47679984999999990;stroke-miterlimit:4;stroke-opacity:1;font-family:Arial;-inkscape-font-specification:Arial"
       d="M 270.94952,173.77735 270.94952,165.40387 278.23081,165.40387 278.23081,173.77735 z M 270.94952,224.70593 270.94952,181.74632 278.23081,181.74632 278.23081,224.70593 z" />
    <path
       inkscape:connector-curvature="0"
       id="path3875"
       style="font-size:82.84490203999999400px;font-style:normal;font-variant:normal;font-weight:normal;font-stretch:normal;line-height:125%;letter-spacing:0px;word-spacing:0px;fill:none;fill-opacity:1;stroke:#000000;stroke-width:1.47679984999999990;stroke-miterlimit:4;stroke-opacity:1;font-family:Arial;-inkscape-font-specification:Arial"
       d="M 294.12828,203.22613 C 294.12827,208.53879 295.32833,212.65136 297.72847,215.56387 299.99375,218.31458 303.01413,219.68994 306.78963,219.68993 310.56509,219.68994 313.57199,218.31458 315.81034,215.56387 318.21044,212.6244 319.4105,208.43092 319.41054,202.98342 319.4105,197.83261 318.19695,193.81442 315.76989,190.92884 313.50457,188.17816 310.51115,186.80281 306.78963,186.80277 302.98716,186.80281 299.96678,188.16468 297.72847,190.88838 295.32833,193.80093 294.12827,197.91351 294.12828,203.22613 z M 327.86492,189.14897 327.86492,180.69458 335.67208,180.69458 335.67208,187.36909 C 335.67203,190.71313 335.15965,193.27506 334.13492,195.0549 332.81345,197.37415 330.39984,199.5046 326.89408,201.44626 326.89404,201.82383 326.89404,202.21486 326.89408,202.61935 326.89404,212.65136 323.65792,219.46071 317.1857,223.04742 314.00347,224.80032 310.53812,225.67677 306.78963,225.67677 300.64097,225.67677 295.7733,223.74858 292.1866,219.89219 288.49202,215.90097 286.64473,210.34562 286.64473,203.22613 286.64473,195.27067 288.85608,189.37823 293.27879,185.54877 296.97336,182.36662 301.47697,180.77553 306.78963,180.77548 312.69554,180.77553 317.52276,182.70372 321.27131,186.56006 324.10288,189.49958 325.86927,193.28855 326.57047,197.92697 328.40423,196.79435 329.71891,195.62125 330.5145,194.40767 331.31,193.19416 331.69429,191.44126 331.66737,189.14897 z M 302.74447,176.40671 308.12454,165.08026 317.67112,165.08026 308.77176,176.40671 z" />
    <path
       inkscape:connector-curvature="0"
       id="path3877"
       style="font-size:82.84490203999999400px;font-style:normal;font-variant:normal;font-weight:normal;font-stretch:normal;line-height:125%;letter-spacing:0px;word-spacing:0px;fill:none;fill-opacity:1;stroke:#000000;stroke-width:1.47679984999999990;stroke-miterlimit:4;stroke-opacity:1;font-family:Arial;-inkscape-font-specification:Arial"
       d="M 343.76241,173.77735 343.76241,165.40387 351.0437,165.40387 351.0437,173.77735 z M 343.76241,224.70593 343.76241,181.74632 351.0437,181.74632 351.0437,224.70593 z" />
    <path
       inkscape:connector-curvature="0"
       id="path3879"
       style="font-size:82.84490203999999400px;font-style:normal;font-variant:normal;font-weight:normal;font-stretch:normal;line-height:125%;letter-spacing:0px;word-spacing:0px;fill:none;fill-opacity:1;stroke:#000000;stroke-width:1.47679984999999990;stroke-miterlimit:4;stroke-opacity:1;font-family:Arial;-inkscape-font-specification:Arial"
       d="M 428.38719,203.9138 436.2348,205.89593 C 434.58972,212.34124 431.63001,217.2561 427.35567,220.64055 423.08124,224.025 417.85625,225.71722 411.68067,225.71722 405.28929,225.71722 400.09127,224.41603 396.08658,221.81364 392.08186,219.21126 389.0345,215.44252 386.94451,210.50742 384.85451,205.57234 383.80951,200.27318 383.80951,194.60993 383.80951,188.43436 384.98935,183.04756 387.34903,178.44951 389.7087,173.85156 393.06618,170.35925 397.42148,167.97255 401.77675,165.58596 406.57026,164.39264 411.80203,164.39258 417.73489,164.39264 422.72392,165.90283 426.76913,168.92316 430.81424,171.9436 433.63236,176.19101 435.22351,181.66542 L 427.49725,183.48574 C 426.12185,179.17095 424.12624,176.02921 421.51042,174.06051 418.89451,172.09192 415.60444,171.1076 411.64022,171.10755 407.08265,171.1076 403.27346,172.19979 400.21264,174.38413 397.15179,176.56856 395.00111,179.5013 393.76061,183.18235 392.52008,186.86349 391.89982,190.65919 391.89984,194.56948 391.89982,199.61247 392.63469,204.01495 394.10445,207.77693 395.57417,211.53895 397.85969,214.35033 400.961,216.21109 404.06226,218.07187 407.41974,219.00226 411.03345,219.00226 415.42915,219.00226 419.1507,217.73478 422.19809,215.1998 425.2454,212.66485 427.30843,208.90285 428.38719,203.9138 z" />
    <path
       inkscape:connector-curvature="0"
       id="path3881"
       style="font-size:82.84490203999999400px;font-style:normal;font-variant:normal;font-weight:normal;font-stretch:normal;line-height:125%;letter-spacing:0px;word-spacing:0px;fill:none;fill-opacity:1;stroke:#000000;stroke-width:1.47679984999999990;stroke-miterlimit:4;stroke-opacity:1;font-family:Arial;-inkscape-font-specification:Arial"
       d="M 442.30254,203.22613 C 442.30253,195.27067 444.51389,189.37823 448.9366,185.54877 452.63117,182.36662 457.13478,180.77553 462.44744,180.77548 468.35335,180.77553 473.18057,182.71046 476.92912,186.58029 480.67759,190.45019 482.55185,195.79654 482.55189,202.61935 482.55185,208.14776 481.72259,212.4963 480.06412,215.665 478.40556,218.83371 475.99195,221.29452 472.82328,223.04742 469.65454,224.80032 466.19593,225.67677 462.44744,225.67677 456.43362,225.67677 451.57269,223.74858 447.86463,219.89219 444.15656,216.03581 442.30253,210.48046 442.30254,203.22613 z M 449.78608,203.22613 C 449.78607,208.72756 450.98614,212.84688 453.38628,215.58409 455.78639,218.32133 458.80677,219.68994 462.44744,219.68993 466.06109,219.68994 469.06799,218.31458 471.46815,215.56387 473.86824,212.81317 475.06831,208.61969 475.06834,202.98342 475.06831,197.6708 473.8615,193.64587 471.44792,190.90861 469.03428,188.17142 466.03412,186.80281 462.44744,186.80277 458.80677,186.80281 455.78639,188.16468 453.38628,190.88838 450.98614,193.61216 449.78607,197.72473 449.78608,203.22613 z M 462.52834,169.52993 457.95731,176.40671 449.62428,176.40671 458.36183,165.08026 466.12854,165.08026 475.23015,176.40671 466.97802,176.40671 z" />
    <path
       inkscape:connector-curvature="0"
       id="path3883"
       style="font-size:82.84490203999999400px;font-style:normal;font-variant:normal;font-weight:normal;font-stretch:normal;line-height:125%;letter-spacing:0px;word-spacing:0px;fill:none;fill-opacity:1;stroke:#000000;stroke-width:1.47679984999999990;stroke-miterlimit:4;stroke-opacity:1;font-family:Arial;-inkscape-font-specification:Arial"
       d="M 491.12763,224.70593 491.12763,181.74632 497.68079,181.74632 497.68079,187.85451 C 500.836,183.1352 505.39355,180.77553 511.35344,180.77548 513.94231,180.77553 516.32221,181.24072 518.49315,182.17106 520.66402,183.10149 522.28882,184.32178 523.36757,185.83193 524.44624,187.34216 525.20133,189.13552 525.63286,191.212 525.90249,192.56042 526.03733,194.92009 526.03737,198.29103 L 526.03737,224.70593 518.75608,224.70593 518.75608,198.57419 C 518.75605,195.60777 518.47289,193.38967 517.9066,191.9199 517.34024,190.45019 516.3357,189.2771 514.89295,188.40061 513.45015,187.5242 511.75793,187.08597 509.81628,187.08593 506.71497,187.08597 504.03842,188.07029 501.78663,190.0389 499.53481,192.00758 498.40891,195.74261 498.40892,201.244 L 498.40892,224.70593 z" />
    <path
       inkscape:connector-curvature="0"
       id="path3885"
       style="font-size:82.84490203999999400px;font-style:normal;font-variant:normal;font-weight:normal;font-stretch:normal;line-height:125%;letter-spacing:0px;word-spacing:0px;fill:none;fill-opacity:1;stroke:#000000;stroke-width:1.47679984999999990;stroke-miterlimit:4;stroke-opacity:1;font-family:Arial;-inkscape-font-specification:Arial"
       d="M 535.90757,228.26567 542.9866,229.31742 C 543.28323,231.5018 544.10575,233.09289 545.45415,234.09071 547.26097,235.43908 549.72852,236.11328 552.85679,236.11329 556.22774,236.11328 558.83012,235.43908 560.66395,234.09071 562.49773,232.74231 563.73824,230.85457 564.3855,228.42748 564.76302,226.94425 564.93831,223.82948 564.91137,219.08316 561.72915,222.83168 557.76489,224.70593 553.0186,224.70593 547.11265,224.70593 542.54162,222.57548 539.3055,218.31458 536.06937,214.05369 534.45131,208.9433 534.45131,202.98342 534.45131,198.88435 535.19292,195.10212 536.67615,191.63674 538.15937,188.17142 540.31004,185.49488 543.12818,183.60709 545.94629,181.7194 549.25658,180.77553 553.05905,180.77548 558.12896,180.77553 562.30895,182.82507 565.59905,186.92413 L 565.59905,181.74632 572.31402,181.74632 572.31402,218.8809 C 572.31398,225.5689 571.63304,230.30848 570.27121,233.09964 568.9093,235.89079 566.75189,238.0954 563.79895,239.71348 560.84596,241.33153 557.21206,242.14056 552.89724,242.14058 547.77336,242.14056 543.63381,240.98769 540.4786,238.68196 537.32337,236.37621 535.79969,232.90412 535.90757,228.26567 z M 541.93486,202.45755 C 541.93485,208.09382 543.05401,212.2064 545.29234,214.79529 547.53065,217.3842 550.33529,218.67865 553.70628,218.67864 557.05025,218.67865 559.85489,217.39094 562.12021,214.81551 564.38547,212.24011 565.51811,208.20169 565.51815,202.70026 565.51811,197.44157 564.35176,193.47732 562.01908,190.80748 559.68634,188.13771 556.87496,186.80281 553.58492,186.80277 550.34877,186.80281 547.59807,188.11749 545.33279,190.7468 543.06749,193.37619 541.93485,197.27977 541.93486,202.45755 z" />
    <path
       inkscape:connector-curvature="0"
       id="path3887"
       style="font-size:82.84490203999999400px;font-style:normal;font-variant:normal;font-weight:normal;font-stretch:normal;line-height:125%;letter-spacing:0px;word-spacing:0px;fill:none;fill-opacity:1;stroke:#000000;stroke-width:1.47679984999999990;stroke-miterlimit:4;stroke-opacity:1;font-family:Arial;-inkscape-font-specification:Arial"
       d="M 607.18332,224.70593 607.18332,165.40387 615.23319,165.40387 646.38094,211.96367 646.38094,165.40387 653.90494,165.40387 653.90494,224.70593 645.85506,224.70593 614.70732,178.10568 614.70732,224.70593 z" />
    <path
       inkscape:connector-curvature="0"
       id="path3889"
       style="font-size:82.84490203999999400px;font-style:normal;font-variant:normal;font-weight:normal;font-stretch:normal;line-height:125%;letter-spacing:0px;word-spacing:0px;fill:none;fill-opacity:1;stroke:#000000;stroke-width:1.47679984999999990;stroke-miterlimit:4;stroke-opacity:1;font-family:Arial;-inkscape-font-specification:Arial"
       d="M 664.86728,228.26567 671.94632,229.31742 C 672.24295,231.5018 673.06546,233.09289 674.41386,234.09071 676.22069,235.43908 678.68823,236.11328 681.81651,236.11329 685.18745,236.11328 687.78984,235.43908 689.62367,234.09071 691.45745,232.74231 692.69796,230.85457 693.34522,228.42748 693.72273,226.94425 693.89802,223.82948 693.87109,219.08316 690.68887,222.83168 686.72461,224.70593 681.97832,224.70593 676.07236,224.70593 671.50134,222.57548 668.26522,218.31458 665.02909,214.05369 663.41102,208.9433 663.41102,202.98342 663.41102,198.88435 664.15263,195.10212 665.63586,191.63674 667.11908,188.17142 669.26976,185.49488 672.0879,183.60709 674.90601,181.7194 678.2163,180.77553 682.01877,180.77548 687.08868,180.77553 691.26867,182.82507 694.55877,186.92413 L 694.55877,181.74632 701.27373,181.74632 701.27373,218.8809 C 701.27369,225.5689 700.59276,230.30848 699.23093,233.09964 697.86902,235.89079 695.7116,238.0954 692.75867,239.71348 689.80567,241.33153 686.17177,242.14056 681.85696,242.14058 676.73307,242.14056 672.59353,240.98769 669.43832,238.68196 666.28308,236.37621 664.75941,232.90412 664.86728,228.26567 z M 670.89457,202.45755 C 670.89456,208.09382 672.01372,212.2064 674.25206,214.79529 676.49036,217.3842 679.29501,218.67865 682.66599,218.67864 686.00997,218.67865 688.81461,217.39094 691.07993,214.81551 693.34519,212.24011 694.47783,208.20169 694.47786,202.70026 694.47783,197.44157 693.31148,193.47732 690.9788,190.80748 688.64606,188.13771 685.83468,186.80281 682.54464,186.80277 679.30849,186.80281 676.55778,188.11749 674.29251,190.7468 672.02721,193.37619 670.89456,197.27977 670.89457,202.45755 z" />
    <path
       inkscape:connector-curvature="0"
       id="path3891"
       style="font-size:82.84490203999999400px;font-style:normal;font-variant:normal;font-weight:normal;font-stretch:normal;line-height:125%;letter-spacing:0px;word-spacing:0px;fill:none;fill-opacity:1;stroke:#000000;stroke-width:1.47679984999999990;stroke-miterlimit:4;stroke-opacity:1;font-family:Arial;-inkscape-font-specification:Arial"
       d="M 712.31705,224.70593 712.31705,165.40387 719.59834,165.40387 719.59834,186.68142 C 722.99626,182.74417 727.28413,180.77553 732.46196,180.77548 735.64412,180.77553 738.40831,181.40252 740.75454,182.65648 743.1007,183.91052 744.77944,185.6432 745.79076,187.85451 746.80201,190.0659 747.30766,193.27506 747.3077,197.482 L 747.3077,224.70593 740.02641,224.70593 740.02641,197.482 C 740.02638,193.84138 739.23757,191.19181 737.65999,189.53326 736.08235,187.87478 733.85077,187.04552 730.96525,187.04548 728.80781,187.04552 726.77849,187.6051 724.87728,188.72422 722.97604,189.84342 721.62091,191.36035 720.81189,193.27503 720.00285,195.18977 719.59833,197.83261 719.59834,201.20355 L 719.59834,224.70593 z" />
    <path
       inkscape:connector-curvature="0"
       id="path3893"
       style="font-size:82.84490203999999400px;font-style:normal;font-variant:normal;font-weight:normal;font-stretch:normal;line-height:125%;letter-spacing:0px;word-spacing:0px;fill:none;fill-opacity:1;stroke:#000000;stroke-width:1.47679984999999990;stroke-miterlimit:4;stroke-opacity:1;font-family:Arial;-inkscape-font-specification:Arial"
       d="M 787.84018,210.87148 795.36418,211.80187 C 794.17756,216.19762 791.97969,219.60903 788.77057,222.03613 785.56138,224.46322 781.46228,225.67677 776.47328,225.67677 770.18978,225.67677 765.20749,223.74184 761.52641,219.87196 757.84531,216.0021 756.00476,210.57485 756.00476,203.59019 756.00476,196.36286 757.86553,190.75358 761.58709,186.76232 765.30862,182.77114 770.13584,180.77553 776.06876,180.77548 781.81286,180.77553 786.50525,182.73068 790.14593,186.64097 793.78653,190.55132 795.60685,196.05274 795.60689,203.14522 795.60685,203.57673 795.59337,204.22395 795.56644,205.0869 L 763.52876,205.0869 C 763.79843,209.80627 765.13333,213.41994 767.53347,215.92793 769.93359,218.43594 772.927,219.68994 776.51373,219.68993 779.18351,219.68994 781.46228,218.98878 783.35005,217.58645 785.23776,216.18413 786.73447,213.94581 787.84018,210.87148 z M 763.93328,199.10006 787.92109,199.10006 C 787.59744,195.48641 786.68054,192.77616 785.17038,190.96929 782.85112,188.16468 779.84422,186.76236 776.14967,186.76232 772.80565,186.76236 769.99426,187.88152 767.71551,190.1198 765.43672,192.35816 764.17598,195.35158 763.93328,199.10006 z M 775.94741,169.52993 771.37638,176.40671 763.04335,176.40671 771.78089,165.08026 779.5476,165.08026 788.64922,176.40671 780.39709,176.40671 z M 772.30676,237.85271 772.30676,229.56013 780.59935,229.56013 780.59935,237.85271 z" />
  </g>
</svg>
